<?xml version="1.0" encoding="UTF-8"?>
<!DOCTYPE svg PUBLIC "-//W3C//DTD SVG 1.1//EN" "http://www.w3.org/Graphics/SVG/1.1/DTD/svg11.dtd">
<svg xmlns="http://www.w3.org/2000/svg" version="1.1" width="2400px" height="1200px" style="shape-rendering:geometricPrecision; text-rendering:geometricPrecision; image-rendering:optimizeQuality; fill-rule:evenodd; clip-rule:evenodd" xmlns:xlink="http://www.w3.org/1999/xlink">
<g><path style="opacity:0.981" fill="#000000" d="M 1079.5,-0.5 C 1170.83,-0.5 1262.17,-0.5 1353.5,-0.5C 1359.21,1.88969 1362.87,6.22303 1364.5,12.5C 1366.19,34.0087 1365.69,55.342 1363,76.5C 1362.67,76.1667 1362.33,75.8333 1362,75.5C 1358.71,83.9 1354.87,91.9 1350.5,99.5C 1347.81,100.336 1345.48,101.836 1343.5,104C 1339.75,108.002 1335.08,111.669 1329.5,115C 1323.55,116.738 1317.89,118.904 1312.5,121.5C 1307.12,122.156 1301.79,122.989 1296.5,124C 1276.83,124.333 1257.17,124.667 1237.5,125C 1238.42,125.374 1239.25,125.874 1240,126.5C 1243.25,138.472 1250.75,146.639 1262.5,151C 1261.17,151.667 1261.17,152.333 1262.5,153C 1264.63,153.92 1266.63,155.087 1268.5,156.5C 1269.69,157.429 1271.02,157.762 1272.5,157.5C 1272.28,158.675 1272.61,159.675 1273.5,160.5C 1278.04,163.026 1281.04,166.693 1282.5,171.5C 1283.5,171.5 1284.5,171.5 1285.5,171.5C 1286.45,173.737 1287.12,176.071 1287.5,178.5C 1288.5,178.5 1289.5,178.5 1290.5,178.5C 1291.17,181.833 1291.83,185.167 1292.5,188.5C 1293.5,188.5 1294.5,188.5 1295.5,188.5C 1297.4,197.935 1299.06,207.435 1300.5,217C 1300.53,221.319 1299.53,225.319 1297.5,229C 1298.06,229.725 1298.39,230.558 1298.5,231.5C 1297.03,236.099 1295.87,240.766 1295,245.5C 1294.67,245.167 1294.33,244.833 1294,244.5C 1292.57,250.541 1289.73,255.708 1285.5,260C 1284.58,261.15 1284.58,262.15 1285.5,263C 1300.7,269.139 1315.37,276.139 1329.5,284C 1352.09,294.668 1374.75,305.168 1397.5,315.5C 1412.24,322.704 1426.91,330.204 1441.5,338C 1446.02,340.045 1450.69,341.545 1455.5,342.5C 1455.5,343.5 1455.5,344.5 1455.5,345.5C 1460.5,346.833 1465.5,348.167 1470.5,349.5C 1470.5,350.5 1470.5,351.5 1470.5,352.5C 1473.98,352.89 1477.32,353.89 1480.5,355.5C 1500.11,365.304 1519.77,375.137 1539.5,385C 1544.02,387.045 1548.69,388.545 1553.5,389.5C 1553.5,390.5 1553.5,391.5 1553.5,392.5C 1558.56,393.848 1563.56,395.348 1568.5,397C 1567.17,397.667 1567.17,398.333 1568.5,399C 1587.2,407.099 1605.7,415.599 1624,424.5C 1627.4,423.237 1630.23,421.237 1632.5,418.5C 1650.84,408.377 1670.18,406.044 1690.5,411.5C 1695.47,414.257 1700.81,416.423 1706.5,418C 1705.17,418.667 1705.17,419.333 1706.5,420C 1708.89,422.095 1711.55,423.595 1714.5,424.5C 1714.28,425.675 1714.61,426.675 1715.5,427.5C 1719.03,430.192 1722.03,433.359 1724.5,437C 1726.01,438.879 1726.68,441.046 1726.5,443.5C 1727.5,443.5 1728.5,443.5 1729.5,443.5C 1730.55,449.111 1731.22,454.778 1731.5,460.5C 1732.5,460.5 1733.5,460.5 1734.5,460.5C 1734.81,470.22 1734.47,479.887 1733.5,489.5C 1771.83,490.333 1810.16,490.833 1848.5,491C 2007.83,491.333 2167.17,491.667 2326.5,492C 2331.89,493.891 2335.89,497.391 2338.5,502.5C 2339.67,731.166 2339.83,959.833 2339,1188.5C 2335.91,1193.1 2332.07,1196.76 2327.5,1199.5C 2058.5,1199.5 1789.5,1199.5 1520.5,1199.5C 1519.43,1198.57 1518.1,1198.23 1516.5,1198.5C 1516.26,1196.03 1514.93,1194.36 1512.5,1193.5C 1511.55,1191.95 1511.21,1190.29 1511.5,1188.5C 1510.5,1188.5 1509.5,1188.5 1508.5,1188.5C 1508.5,1186.5 1508.5,1184.5 1508.5,1182.5C 1497.83,1182.5 1487.17,1182.5 1476.5,1182.5C 1474.68,1185.45 1473.51,1188.79 1473,1192.5C 1469.88,1195.15 1466.72,1197.48 1463.5,1199.5C 1004.17,1199.5 544.833,1199.5 85.5,1199.5C 81.5967,1197.43 78.4301,1194.43 76,1190.5C 75.3333,960.5 75.3333,730.5 76,500.5C 78.5452,496.954 81.7119,494.121 85.5,492C 251.833,491.667 418.167,491.333 584.5,491C 622.838,490.833 661.171,490.333 699.5,489.5C 698.526,479.887 698.192,470.22 698.5,460.5C 699.5,460.5 700.5,460.5 701.5,460.5C 701.779,454.778 702.445,449.111 703.5,443.5C 704.5,443.5 705.5,443.5 706.5,443.5C 708.01,436.845 711.677,431.511 717.5,427.5C 718.386,426.675 718.719,425.675 718.5,424.5C 721.447,423.595 724.113,422.095 726.5,420C 727.833,419.333 727.833,418.667 726.5,418C 735.047,414.988 743.381,411.988 751.5,409C 762.974,407.991 774.308,408.825 785.5,411.5C 790.334,413.908 795.334,416.241 800.5,418.5C 802.771,421.237 805.604,423.237 809,424.5C 832.661,413.732 856.161,402.899 879.5,392C 880.833,391.333 880.833,390.667 879.5,390C 898.421,382.687 916.754,374.02 934.5,364C 943.04,361.221 951.04,357.554 958.5,353C 959.793,352.51 961.127,352.343 962.5,352.5C 962.5,351.5 962.5,350.5 962.5,349.5C 967.5,348.167 972.5,346.833 977.5,345.5C 977.5,344.5 977.5,343.5 977.5,342.5C 982.309,341.545 986.976,340.045 991.5,338C 1005.61,330.304 1020.61,322.97 1036.5,316C 1036.17,315.667 1035.83,315.333 1035.5,315C 1038.83,314 1042.17,313 1045.5,312C 1068.44,300.482 1091.44,289.149 1114.5,278C 1115.79,277.51 1117.13,277.343 1118.5,277.5C 1118.5,276.5 1118.5,275.5 1118.5,274.5C 1123.5,273.167 1128.5,271.833 1133.5,270.5C 1133.5,269.5 1133.5,268.5 1133.5,267.5C 1138.82,266.538 1143.82,264.705 1148.5,262C 1147.4,259.228 1145.56,257.062 1143,255.5C 1138.73,245.819 1135.57,235.819 1133.5,225.5C 1132.34,221.205 1132.17,216.871 1133,212.5C 1134.75,210.911 1135.91,208.911 1136.5,206.5C 1142.95,198.291 1151.28,195.625 1161.5,198.5C 1165.17,200.512 1168.84,202.512 1172.5,204.5C 1172.15,207.045 1172.98,209.045 1175,210.5C 1174.26,224.153 1178.26,235.153 1187,243.5C 1188.82,242.671 1190.65,241.837 1192.5,241C 1192.17,240.667 1191.83,240.333 1191.5,240C 1197.03,238.879 1202.03,236.712 1206.5,233.5C 1213.17,232.167 1219.83,232.167 1226.5,233.5C 1232.88,237.297 1239.05,240.297 1245,242.5C 1245.83,242.333 1246.67,242.167 1247.5,242C 1262.21,222.172 1260.21,203.505 1241.5,186C 1237.96,184.061 1234.29,182.395 1230.5,181C 1231.83,180.333 1231.83,179.667 1230.5,179C 1227.37,177.411 1224.37,175.578 1221.5,173.5C 1217.61,168.37 1213.28,163.703 1208.5,159.5C 1206.66,156.748 1205.66,153.748 1205.5,150.5C 1204.5,150.5 1203.5,150.5 1202.5,150.5C 1201.47,146.573 1200.81,142.573 1200.5,138.5C 1199.5,138.5 1198.5,138.5 1197.5,138.5C 1197.67,134.818 1197.5,131.152 1197,127.5C 1196.63,126.584 1196.13,125.75 1195.5,125C 1175.83,124.667 1156.17,124.333 1136.5,124C 1131.21,122.989 1125.88,122.156 1120.5,121.5C 1109.41,117.957 1099.08,112.791 1089.5,106C 1089.83,105.667 1090.17,105.333 1090.5,105C 1088.2,102.51 1085.53,100.677 1082.5,99.5C 1078.46,91.8117 1074.46,84.145 1070.5,76.5C 1069.93,72.6902 1069.1,69.0235 1068,65.5C 1067.17,47.8239 1067.33,30.1572 1068.5,12.5C 1070.13,6.22303 1073.79,1.88969 1079.5,-0.5 Z M 1182.5,288.5 C 1186.99,290.125 1191.66,291.459 1196.5,292.5C 1203.25,293.06 1209.92,294.06 1216.5,295.5C 1228.1,294.14 1239.44,291.974 1250.5,289C 1273.53,300.517 1296.53,312.017 1319.5,323.5C 1324.15,325.394 1328.82,327.228 1333.5,329C 1334.83,329.667 1334.83,330.333 1333.5,331C 1343.85,334.251 1353.85,338.085 1363.5,342.5C 1363.5,343.5 1363.5,344.5 1363.5,345.5C 1368.31,346.455 1372.98,347.955 1377.5,350C 1414.49,368.772 1451.83,386.772 1489.5,404C 1490.83,404.667 1490.83,405.333 1489.5,406C 1494.63,407.404 1499.63,409.07 1504.5,411C 1524.17,421.316 1544.17,430.983 1564.5,440C 1564.17,440.333 1563.83,440.667 1563.5,441C 1578.24,446.924 1592.58,453.591 1606.5,461C 1605.33,461.5 1604.5,462.333 1604,463.5C 1603.2,472.215 1603.36,480.882 1604.5,489.5C 1550.08,489.868 1495.75,490.868 1441.5,492.5C 1441.5,493.5 1441.5,494.5 1441.5,495.5C 1439.39,495.679 1437.73,496.679 1436.5,498.5C 1434.94,500.991 1433.94,503.657 1433.5,506.5C 1422.48,506.832 1411.48,506.499 1400.5,505.5C 1398.94,502.445 1397.28,499.445 1395.5,496.5C 1394.68,495.614 1393.68,495.281 1392.5,495.5C 1392.5,494.5 1392.5,493.5 1392.5,492.5C 1204.57,490.845 1016.57,489.845 828.5,489.5C 829.639,480.548 829.805,471.548 829,462.5C 828.25,461.874 827.416,461.374 826.5,461C 870.406,439.369 914.073,418.535 957.5,398.5C 962.459,395.685 967.459,392.851 972.5,390C 977.024,387.955 981.691,386.455 986.5,385.5C 986.5,384.5 986.5,383.5 986.5,382.5C 989.983,382.11 993.316,381.11 996.5,379.5C 1058.61,349.303 1120.27,319.637 1181.5,290.5C 1181.86,289.817 1182.2,289.15 1182.5,288.5 Z M 755.5,448.5 C 762.688,448.003 769.688,448.836 776.5,451C 778.833,454 781.5,456.667 784.5,459C 783.446,460.388 783.28,461.888 784,463.5C 784.667,462.167 785.333,462.167 786,463.5C 786.5,472.494 786.666,481.494 786.5,490.5C 771.163,490.667 755.83,490.5 740.5,490C 741.319,481.245 741.819,472.411 742,463.5C 743.017,461.624 743.851,459.624 744.5,457.5C 745.524,456.147 746.857,455.48 748.5,455.5C 748.281,454.325 748.614,453.325 749.5,452.5C 751.626,451.171 753.626,449.837 755.5,448.5 Z M 1660.5,448.5 C 1666.18,448.334 1671.84,448.501 1677.5,449C 1679.06,449.98 1680.73,450.813 1682.5,451.5C 1683.98,454.057 1685.98,456.057 1688.5,457.5C 1689.12,459.966 1689.96,462.299 1691,464.5C 1691.18,473.078 1691.68,481.578 1692.5,490C 1677.17,490.5 1661.84,490.667 1646.5,490.5C 1646.33,481.494 1646.5,472.494 1647,463.5C 1647.67,462.167 1648.33,462.167 1649,463.5C 1649.15,459.383 1650.81,456.05 1654,453.5C 1656.19,451.635 1658.36,449.968 1660.5,448.5 Z"/></g>
<g><path style="opacity:1" fill="#fe9800" d="M 1108.5,35.5 C 1180.5,35.1667 1252.5,35.5 1324.5,36.5C 1323.69,46.1195 1323.19,55.7862 1323,65.5C 1318.92,75.9092 1311.42,82.4092 1300.5,85C 1244.17,85.6667 1187.83,85.6667 1131.5,85C 1121.14,81.9659 1113.97,75.4659 1110,65.5C 1109.78,55.4539 1109.28,45.4539 1108.5,35.5 Z"/></g>
<g><path style="opacity:1" fill="#fe9800" d="M 1398.5,509.5 C 1410.5,509.5 1422.5,509.5 1434.5,509.5C 1435.61,518.119 1440.28,523.953 1448.5,527C 1732.22,526.769 2016.55,526.936 2301.5,527.5C 2301.5,541.833 2301.5,556.167 2301.5,570.5C 2217.83,570.333 2134.17,570.5 2050.5,571C 2034.97,576.19 2030.97,586.023 2038.5,600.5C 2041.54,603.688 2045.21,605.855 2049.5,607C 2133.49,606.913 2217.49,607.08 2301.5,607.5C 2301.5,792.833 2301.5,978.167 2301.5,1163.5C 2042.5,1163.88 1783.5,1164.05 1524.5,1164C 1516.49,1166.21 1511.82,1171.37 1510.5,1179.5C 1498.17,1179.5 1485.83,1179.5 1473.5,1179.5C 1472.2,1171.36 1467.53,1166.2 1459.5,1164C 1010.83,1163.9 562.163,1163.74 113.5,1163.5C 113.5,978.167 113.5,792.833 113.5,607.5C 197.506,607.08 281.506,606.913 365.5,607C 379.857,601.735 383.69,592.235 377,578.5C 373.547,574.855 369.38,572.355 364.5,571C 280.834,570.5 197.167,570.333 113.5,570.5C 113.5,556.167 113.5,541.833 113.5,527.5C 535.646,526.49 959.646,526.323 1385.5,527C 1393.37,523.741 1397.71,517.907 1398.5,509.5 Z"/></g>
<g><path style="opacity:0.999" fill="#000000" d="M 932.5,570.5 C 1194.5,570.333 1456.5,570.5 1718.5,571C 1731.77,573.368 1737.27,581.201 1735,594.5C 1731.64,602.766 1725.47,606.933 1716.5,607C 1454.5,607.667 1192.5,607.667 930.5,607C 915.748,601.019 912.248,591.186 920,577.5C 923.739,574.219 927.905,571.885 932.5,570.5 Z"/></g>
<g><path style="opacity:1" fill="#e99212" d="M 476.5,767.5 C 469.361,767.822 462.361,766.988 455.5,765C 409.167,764.333 362.833,764.333 316.5,765C 315.255,765.791 313.922,766.291 312.5,766.5C 312.577,765.25 313.244,764.417 314.5,764C 361.833,763.333 409.167,763.333 456.5,764C 463.433,764.432 470.099,765.599 476.5,767.5 Z"/></g>
<g><path style="opacity:1" fill="#e99213" d="M 1813.5,767.5 C 1807.37,767.635 1801.37,766.801 1795.5,765C 1749.17,764.333 1702.83,764.333 1656.5,765C 1654.23,767.023 1651.56,767.856 1648.5,767.5C 1650.74,766.916 1652.74,765.75 1654.5,764C 1701.83,763.333 1749.17,763.333 1796.5,764C 1802.52,764.109 1808.19,765.276 1813.5,767.5 Z"/></g>
<g><path style="opacity:1" fill="#ea910d" d="M 2124.5,764.5 C 2056.17,764.333 1987.83,764.5 1919.5,765C 1918.76,766.039 1917.76,766.539 1916.5,766.5C 1916.41,765.504 1916.75,764.671 1917.5,764C 1986.67,763.168 2055.67,763.335 2124.5,764.5 Z"/></g>
<g><path style="opacity:1" fill="#000000" d="M 745.5,873.5 C 746.189,842.307 746.855,810.973 747.5,779.5C 749.821,771.988 754.821,767.154 762.5,765C 769.167,764.333 775.833,764.333 782.5,765C 784.49,766.751 786.823,767.751 789.5,768C 792.259,769.529 794.259,771.695 795.5,774.5C 797.168,776.479 797.834,778.812 797.5,781.5C 798.478,813.135 798.811,844.802 798.5,876.5C 795.698,908.469 780.698,932.969 753.5,950C 738.452,958.201 722.452,963.701 705.5,966.5C 673.717,970.894 643.717,966.061 615.5,952C 591.284,938.306 575.618,918.139 568.5,891.5C 568.628,889.345 568.128,887.345 567,885.5C 566.5,851.168 566.333,816.835 566.5,782.5C 566.402,778.75 567.569,775.417 570,772.5C 579.331,764.725 590.165,762.225 602.5,765C 604.49,766.751 606.823,767.751 609.5,768C 611.01,770.009 612.677,771.842 614.5,773.5C 615.234,776.666 616.4,779.666 618,782.5C 618.333,815.167 618.667,847.833 619,880.5C 623.818,895.652 633.318,906.818 647.5,914C 653.679,916.315 660.013,918.315 666.5,920C 692.231,925.009 714.731,919.175 734,902.5C 741.324,894.189 745.158,884.523 745.5,873.5 Z"/></g>
<g><path style="opacity:1" fill="#010000" d="M 1065.5,778.5 C 1065.71,779.922 1066.21,781.255 1067,782.5C 1067.67,837.5 1067.67,892.5 1067,947.5C 1066.18,950.117 1065.68,952.784 1065.5,955.5C 1062.71,960.624 1058.71,964.291 1053.5,966.5C 1042.5,967.833 1031.5,967.833 1020.5,966.5C 1018.94,964.869 1016.94,964.036 1014.5,964C 975.568,930.405 937.235,896.072 899.5,861C 897.167,859.5 894.833,858 892.5,856.5C 890.257,855.526 887.924,855.192 885.5,855.5C 885.667,888.168 885.5,920.835 885,953.5C 879.741,963.564 871.408,968.23 860,967.5C 846.424,968.591 837.757,962.591 834,949.5C 833.333,892.167 833.333,834.833 834,777.5C 836.116,771.719 839.949,767.552 845.5,765C 854.167,764.333 862.833,764.333 871.5,765C 878.263,768.221 884.596,772.221 890.5,777C 926.114,810.277 961.781,843.611 997.5,877C 1000.83,879.667 1004.17,882.333 1007.5,885C 1010.64,885.952 1013.14,885.119 1015,882.5C 1015.33,847.5 1015.67,812.5 1016,777.5C 1017.75,773.412 1020.59,770.246 1024.5,768C 1032.75,764.546 1041.42,763.546 1050.5,765C 1054.71,766.51 1058.54,768.676 1062,771.5C 1063.88,773.527 1065.05,775.86 1065.5,778.5 Z"/></g>
<g><path style="opacity:1" fill="#020100" d="M 476.5,767.5 C 477.058,768.79 478.058,769.623 479.5,770C 522.399,780.925 538.233,808.092 527,851.5C 524.342,856.842 520.842,861.676 516.5,866C 515.062,866.219 513.729,866.719 512.5,867.5C 517.093,870.257 520.926,873.924 524,878.5C 526.578,883.121 528.244,888.121 529,893.5C 533.851,923.974 522.351,945.474 494.5,958C 489.489,960.286 484.156,961.619 478.5,962C 477.672,962.915 476.672,963.581 475.5,964C 470.637,964.029 465.97,964.862 461.5,966.5C 412.167,967.833 362.833,967.833 313.5,966.5C 307.26,963.928 302.427,959.595 299,953.5C 298.506,951.866 298.34,950.199 298.5,948.5C 298.5,893.833 298.5,839.167 298.5,784.5C 299.527,775.657 304.194,769.657 312.5,766.5C 313.922,766.291 315.255,765.791 316.5,765C 362.833,764.333 409.167,764.333 455.5,765C 462.361,766.988 469.361,767.822 476.5,767.5 Z"/></g>
<g><path style="opacity:1" fill="#020100" d="M 1117.5,764.5 C 1124.17,764.334 1130.84,764.5 1137.5,765C 1144.88,767.373 1150.04,772.206 1153,779.5C 1153.67,837.167 1153.67,894.833 1153,952.5C 1150.91,956.914 1148.08,960.747 1144.5,964C 1142.06,964.036 1140.06,964.869 1138.5,966.5C 1131.17,967.833 1123.83,967.833 1116.5,966.5C 1115.29,964.931 1113.62,964.098 1111.5,964C 1109.32,962.323 1107.32,960.489 1105.5,958.5C 1104.78,955.93 1103.61,953.597 1102,951.5C 1101.33,894.5 1101.33,837.5 1102,780.5C 1103.29,777.271 1104.96,774.271 1107,771.5C 1110.21,768.668 1113.71,766.335 1117.5,764.5 Z"/></g>
<g><path style="opacity:1" fill="#010100" d="M 1332.5,894.5 C 1333.82,913.502 1333.82,932.502 1332.5,951.5C 1332.5,952.833 1332.5,954.167 1332.5,955.5C 1330.64,959.01 1327.98,961.843 1324.5,964C 1322.06,964.036 1320.06,964.869 1318.5,966.5C 1303.25,971.031 1291.75,966.697 1284,953.5C 1283.67,935.5 1283.33,917.5 1283,899.5C 1281.69,897.359 1280.19,895.359 1278.5,893.5C 1275.72,892.611 1273.05,891.444 1270.5,890C 1247.17,889.667 1223.83,889.333 1200.5,889C 1196.25,887.485 1192.25,885.485 1188.5,883C 1186.51,880.842 1185.17,878.342 1184.5,875.5C 1181.69,868.029 1182.03,860.696 1185.5,853.5C 1189.81,848.678 1195.14,846.011 1201.5,845.5C 1223.86,846.156 1245.86,845.489 1267.5,843.5C 1268.17,843.5 1268.5,843.167 1268.5,842.5C 1275.31,843.346 1280.14,840.679 1283,834.5C 1283.33,815.5 1283.67,796.5 1284,777.5C 1289.35,768.324 1297.35,763.991 1308,764.5C 1321.57,763.749 1330.57,769.749 1335,782.5C 1335.67,799.167 1335.67,815.833 1335,832.5C 1333.2,837.678 1332.2,843.011 1332,848.5C 1329.7,854.926 1326.2,860.593 1321.5,865.5C 1319.83,866.167 1318.17,866.833 1316.5,867.5C 1318.97,870.269 1321.8,872.602 1325,874.5C 1329.8,880.317 1332.3,886.984 1332.5,894.5 Z"/></g>
<g><path style="opacity:1" fill="#020100" d="M 1590.5,808.5 C 1588.07,808.523 1585.74,809.023 1583.5,810C 1531.67,810.167 1480,810.667 1428.5,811.5C 1424.69,810.981 1422.69,812.647 1422.5,816.5C 1421.17,825.568 1421.17,834.735 1422.5,844C 1447.16,844.5 1471.83,844.667 1496.5,844.5C 1501,844.994 1505.33,845.994 1509.5,847.5C 1521.02,857.615 1522.52,869.282 1514,882.5C 1509.68,885.289 1505.18,887.622 1500.5,889.5C 1474.17,889.5 1447.83,889.5 1421.5,889.5C 1421.33,897.84 1421.5,906.173 1422,914.5C 1422.9,916.431 1424.07,918.097 1425.5,919.5C 1426.57,920.434 1427.9,920.768 1429.5,920.5C 1481.71,921.175 1534.04,921.842 1586.5,922.5C 1596.11,924.002 1601.44,929.669 1602.5,939.5C 1602.98,944.759 1602.32,949.759 1600.5,954.5C 1600.42,956.929 1599.42,958.929 1597.5,960.5C 1594.87,963.143 1591.87,965.143 1588.5,966.5C 1521.17,967.833 1453.83,967.833 1386.5,966.5C 1384.85,965.012 1382.85,964.012 1380.5,963.5C 1377.81,961.479 1375.48,959.146 1373.5,956.5C 1372.52,953.933 1371.86,951.267 1371.5,948.5C 1370.53,894.183 1370.19,839.85 1370.5,785.5C 1371.04,783.883 1371.37,782.216 1371.5,780.5C 1372.86,777.269 1374.53,774.102 1376.5,771C 1379.92,768.56 1383.59,766.56 1387.5,765C 1454.5,764.333 1521.5,764.333 1588.5,765C 1598.32,768.951 1602.99,776.284 1602.5,787C 1602.69,792.464 1601.52,797.63 1599,802.5C 1596.46,804.951 1593.63,806.951 1590.5,808.5 Z"/></g>
<g><path style="opacity:1" fill="#020100" d="M 1813.5,767.5 C 1820.58,769.53 1827.58,771.696 1834.5,774C 1862.69,786.878 1874.52,808.712 1870,839.5C 1868.53,843.029 1867.53,846.695 1867,850.5C 1864.9,858.435 1860.07,864.102 1852.5,867.5C 1857.09,870.257 1860.93,873.924 1864,878.5C 1864.96,881.377 1866.29,884.044 1868,886.5C 1870.52,907.374 1871.19,928.374 1870,949.5C 1869.38,953.951 1867.55,957.784 1864.5,961C 1852.6,968.538 1840.27,969.372 1827.5,963.5C 1823.7,960.196 1820.86,956.196 1819,951.5C 1818.67,933.5 1818.33,915.5 1818,897.5C 1817.22,895.714 1816.05,894.214 1814.5,893C 1811.64,892.46 1808.97,891.46 1806.5,890C 1784.17,889.667 1761.83,889.333 1739.5,889C 1727.89,885.903 1722.23,878.403 1722.5,866.5C 1722.05,858.395 1725.05,852.062 1731.5,847.5C 1734.58,845.98 1737.91,845.147 1741.5,845C 1761.5,844.667 1781.5,844.333 1801.5,844C 1802.74,843.768 1803.74,843.268 1804.5,842.5C 1815.25,842.653 1820.25,837.32 1819.5,826.5C 1819.94,822.82 1818.94,819.653 1816.5,817C 1812.26,815.086 1807.93,813.419 1803.5,812C 1768.52,810.462 1733.52,810.129 1698.5,811C 1694.82,810.663 1692.48,812.163 1691.5,815.5C 1690.69,816.429 1689.85,817.429 1689,818.5C 1688.5,861.832 1688.33,905.165 1688.5,948.5C 1688.88,953.498 1687.22,957.664 1683.5,961C 1674.23,967.214 1663.89,969.047 1652.5,966.5C 1647.98,964.489 1644.14,961.489 1641,957.5C 1640.12,954.743 1639.12,952.076 1638,949.5C 1637.33,894.833 1637.33,840.167 1638,785.5C 1639.59,778.402 1643.09,772.402 1648.5,767.5C 1651.56,767.856 1654.23,767.023 1656.5,765C 1702.83,764.333 1749.17,764.333 1795.5,765C 1801.37,766.801 1807.37,767.635 1813.5,767.5 Z"/></g>
<g><path style="opacity:1" fill="#010000" d="M 2124.5,764.5 C 2128.09,766.553 2131.59,768.886 2135,771.5C 2138.5,778.695 2139.34,786.362 2137.5,794.5C 2132.99,804.48 2127.16,813.813 2120,822.5C 2099.83,839.003 2079.66,855.503 2059.5,872C 2039.65,887.75 2019.65,903.25 1999.5,918.5C 1998.57,919.568 1998.23,920.901 1998.5,922.5C 2040.18,922.2 2081.85,922.534 2123.5,923.5C 2128.41,923.883 2132.24,926.217 2135,930.5C 2135.1,932.619 2135.93,934.286 2137.5,935.5C 2138.5,941.128 2138.83,946.794 2138.5,952.5C 2137.5,952.5 2136.5,952.5 2135.5,952.5C 2135.8,954.604 2135.47,956.604 2134.5,958.5C 2132.68,960.158 2131.01,961.991 2129.5,964C 2127.06,964.036 2125.06,964.869 2123.5,966.5C 2054.17,967.833 1984.83,967.833 1915.5,966.5C 1912.62,965.119 1910.12,963.119 1908,960.5C 1904.74,953.501 1903.74,946.168 1905,938.5C 1907.16,932.649 1909.83,926.982 1913,921.5C 1915.91,918.713 1918.58,915.713 1921,912.5C 1962.1,879.372 2003.27,846.372 2044.5,813.5C 2045.5,813.167 2046.17,812.5 2046.5,811.5C 2048.05,811.179 2048.71,810.179 2048.5,808.5C 2005.17,808.5 1961.83,808.5 1918.5,808.5C 1912.07,806.953 1908.41,802.953 1907.5,796.5C 1906.1,792.369 1905.43,788.036 1905.5,783.5C 1906.05,775.655 1909.71,769.988 1916.5,766.5C 1917.76,766.539 1918.76,766.039 1919.5,765C 1987.83,764.5 2056.17,764.333 2124.5,764.5 Z"/></g>
<g><path style="opacity:1" fill="#f19e24" d="M 566.5,782.5 C 566.333,816.835 566.5,851.168 567,885.5C 568.128,887.345 568.628,889.345 568.5,891.5C 567.685,890.571 566.852,889.571 566,888.5C 563.481,853.582 562.815,818.582 564,783.5C 564.671,782.748 565.504,782.414 566.5,782.5 Z"/></g>
<g><path style="opacity:1" fill="#ce8820" d="M 747.5,779.5 C 746.855,810.973 746.189,842.307 745.5,873.5C 745.333,842.498 745.5,811.498 746,780.5C 746.383,779.944 746.883,779.611 747.5,779.5 Z"/></g>
<g><path style="opacity:1" fill="#e28d0f" d="M 1371.5,780.5 C 1371.37,782.216 1371.04,783.883 1370.5,785.5C 1369.33,838.332 1369.17,891.332 1370,944.5C 1370.21,946.058 1370.71,947.391 1371.5,948.5C 1371.86,951.267 1372.52,953.933 1373.5,956.5C 1372.02,954.938 1370.52,953.271 1369,951.5C 1368.33,895.833 1368.33,840.167 1369,784.5C 1369.61,782.934 1370.44,781.6 1371.5,780.5 Z"/></g>
<g><path style="opacity:1" fill="#d49840" d="M 797.5,781.5 C 798.117,781.611 798.617,781.944 799,782.5C 799.5,813.498 799.667,844.498 799.5,875.5C 799.5,876.167 799.167,876.5 798.5,876.5C 798.811,844.802 798.478,813.135 797.5,781.5 Z"/></g>
<g><path style="opacity:1" fill="#ef9a1c" d="M 795.5,774.5 C 796.496,774.414 797.329,774.748 798,775.5C 798.36,777.608 799.027,779.608 800,781.5C 800.831,813.003 800.664,844.336 799.5,875.5C 799.667,844.498 799.5,813.498 799,782.5C 798.617,781.944 798.117,781.611 797.5,781.5C 797.834,778.812 797.168,776.479 795.5,774.5 Z"/></g>
<g><path style="opacity:1" fill="#3d2c14" d="M 1905.5,783.5 C 1905.43,788.036 1906.1,792.369 1907.5,796.5C 1904.62,792.452 1903.95,788.119 1905.5,783.5 Z"/></g>
<g><path style="opacity:1" fill="#8d6b38" d="M 298.5,784.5 C 298.5,839.167 298.5,893.833 298.5,948.5C 297.167,921.675 296.5,894.508 296.5,867C 296.667,839.833 296.833,812.667 297,785.5C 297.383,784.944 297.883,784.611 298.5,784.5 Z"/></g>
<g><path style="opacity:1" fill="#2c1f0b" d="M 1370.5,785.5 C 1370.19,839.85 1370.53,894.183 1371.5,948.5C 1370.71,947.391 1370.21,946.058 1370,944.5C 1369.17,891.332 1369.33,838.332 1370.5,785.5 Z"/></g>
<g><path style="opacity:1" fill="#473417" d="M 1918.5,808.5 C 1961.83,808.5 2005.17,808.5 2048.5,808.5C 2048.71,810.179 2048.05,811.179 2046.5,811.5C 2046.61,810.883 2046.94,810.383 2047.5,810C 2005.5,809.5 1963.5,809.333 1921.5,809.5C 1920.21,809.737 1919.21,809.404 1918.5,808.5 Z"/></g>
<g><path style="opacity:1" fill="#e6a340" d="M 1921.5,809.5 C 1963.5,809.333 2005.5,809.5 2047.5,810C 2046.94,810.383 2046.61,810.883 2046.5,811.5C 2046.17,812.5 2045.5,813.167 2044.5,813.5C 2044.5,812.5 2044.5,811.5 2044.5,810.5C 2003.33,810.832 1962.33,810.499 1921.5,809.5 Z"/></g>
<g><path style="opacity:1" fill="#d3902f" d="M 446.5,811.5 C 415.142,811.197 383.809,811.53 352.5,812.5C 353.263,811.732 354.263,811.232 355.5,811C 386.003,810.169 416.336,810.336 446.5,811.5 Z"/></g>
<g><path style="opacity:1" fill="#d59230" d="M 1590.5,808.5 C 1590.5,809.167 1590.17,809.5 1589.5,809.5C 1587.82,809.892 1586.15,810.392 1584.5,811C 1532.5,811.5 1480.5,811.667 1428.5,811.5C 1480,810.667 1531.67,810.167 1583.5,810C 1585.74,809.023 1588.07,808.523 1590.5,808.5 Z"/></g>
<g><path style="opacity:1" fill="#f29813" d="M 1589.5,809.5 C 1588.65,810.966 1587.32,811.8 1585.5,812C 1532.5,812.167 1479.5,812.667 1426.5,813.5C 1425.48,814.354 1424.64,815.354 1424,816.5C 1423.5,825.16 1423.33,833.827 1423.5,842.5C 1422.51,834.016 1422.17,825.349 1422.5,816.5C 1422.69,812.647 1424.69,810.981 1428.5,811.5C 1480.5,811.667 1532.5,811.5 1584.5,811C 1586.15,810.392 1587.82,809.892 1589.5,809.5 Z"/></g>
<g><path style="opacity:1" fill="#fd9803" d="M 446.5,811.5 C 458.117,809.699 468.617,812.033 478,818.5C 482.689,832.328 478.189,840.661 464.5,843.5C 443.02,844.123 421.686,844.789 400.5,845.5C 390.964,846.192 384.797,851.192 382,860.5C 379.786,875.09 385.619,884.59 399.5,889C 422.896,889.03 446.23,889.697 469.5,891C 470.949,892.117 472.616,892.784 474.5,893C 479.527,898.991 480.694,905.824 478,913.5C 476.961,914.71 475.794,915.71 474.5,916.5C 470.89,916.402 467.557,917.236 464.5,919C 427.835,919.5 391.168,919.667 354.5,919.5C 352.197,918.589 350.697,916.923 350,914.5C 349.333,881.833 349.333,849.167 350,816.5C 350.2,814.68 351.034,813.347 352.5,812.5C 383.809,811.53 415.142,811.197 446.5,811.5 Z"/></g>
<g><path style="opacity:1" fill="#e58f10" d="M 1065.5,778.5 C 1066.5,778.414 1067.33,778.748 1068,779.5C 1068.67,837.833 1068.67,896.167 1068,954.5C 1067.33,955.252 1066.5,955.586 1065.5,955.5C 1065.68,952.784 1066.18,950.117 1067,947.5C 1067.67,892.5 1067.67,837.5 1067,782.5C 1066.21,781.255 1065.71,779.922 1065.5,778.5 Z"/></g>
<g><path style="opacity:1" fill="#d69431" d="M 1691.5,815.5 C 1691.19,860.156 1690.19,904.489 1688.5,948.5C 1688.33,905.165 1688.5,861.832 1689,818.5C 1689.85,817.429 1690.69,816.429 1691.5,815.5 Z"/></g>
<g><path style="opacity:1" fill="#e39d35" d="M 1268.5,842.5 C 1268.5,843.167 1268.17,843.5 1267.5,843.5C 1245.53,844.457 1223.53,844.79 1201.5,844.5C 1202.26,843.732 1203.26,843.232 1204.5,843C 1225.83,842.5 1247.16,842.333 1268.5,842.5 Z"/></g>
<g><path style="opacity:1" fill="#ea9c2a" d="M 1423.5,842.5 C 1448.84,842.333 1474.17,842.5 1499.5,843C 1502.04,844.092 1504.71,844.759 1507.5,845C 1508.38,845.708 1509.05,846.542 1509.5,847.5C 1505.33,845.994 1501,844.994 1496.5,844.5C 1472.17,843.833 1447.83,843.167 1423.5,842.5 Z"/></g>
<g><path style="opacity:1" fill="#e09a33" d="M 1804.5,842.5 C 1803.74,843.268 1802.74,843.768 1801.5,844C 1781.5,844.333 1761.5,844.667 1741.5,845C 1737.91,845.147 1734.58,845.98 1731.5,847.5C 1731.8,846.85 1732.14,846.183 1732.5,845.5C 1735.56,844.804 1738.56,843.97 1741.5,843C 1762.5,842.5 1783.5,842.333 1804.5,842.5 Z"/></g>
<g><path style="opacity:1" fill="#d69b42" d="M 1422.5,816.5 C 1422.17,825.349 1422.51,834.016 1423.5,842.5C 1447.83,843.167 1472.17,843.833 1496.5,844.5C 1471.83,844.667 1447.16,844.5 1422.5,844C 1421.17,834.735 1421.17,825.568 1422.5,816.5 Z"/></g>
<g><path style="opacity:1" fill="#352815" d="M 464.5,843.5 C 464.389,844.117 464.056,844.617 463.5,845C 442.503,845.5 421.503,845.667 400.5,845.5C 421.686,844.789 443.02,844.123 464.5,843.5 Z"/></g>
<g><path style="opacity:1" fill="#362915" d="M 1267.5,843.5 C 1245.86,845.489 1223.86,846.156 1201.5,845.5C 1201.5,845.167 1201.5,844.833 1201.5,844.5C 1223.53,844.79 1245.53,844.457 1267.5,843.5 Z"/></g>
<g><path style="opacity:1" fill="#d08922" d="M 1185.5,853.5 C 1182.03,860.696 1181.69,868.029 1184.5,875.5C 1183.25,875.423 1182.42,874.756 1182,873.5C 1181.17,868.136 1181.34,862.802 1182.5,857.5C 1183.06,855.668 1184.06,854.335 1185.5,853.5 Z"/></g>
<g><path style="opacity:1" fill="#e28c13" d="M 1500.5,889.5 C 1474.67,890.498 1448.67,890.831 1422.5,890.5C 1421.87,900.397 1422.87,910.063 1425.5,919.5C 1424.07,918.097 1422.9,916.431 1422,914.5C 1421.5,906.173 1421.33,897.84 1421.5,889.5C 1447.83,889.5 1474.17,889.5 1500.5,889.5 Z"/></g>
<g><path style="opacity:1" fill="#2e2314" d="M 1332.5,894.5 C 1332.83,894.5 1333.17,894.5 1333.5,894.5C 1334.57,912.485 1334.73,930.485 1334,948.5C 1333.77,949.737 1333.27,950.737 1332.5,951.5C 1333.82,932.502 1333.82,913.502 1332.5,894.5 Z"/></g>
<g><path style="opacity:1" fill="#d28c26" d="M 1333.5,894.5 C 1334.83,903.809 1335.5,913.476 1335.5,923.5C 1335.17,933.167 1334.83,942.833 1334.5,952.5C 1333.82,953.602 1333.16,954.602 1332.5,955.5C 1332.5,954.167 1332.5,952.833 1332.5,951.5C 1333.27,950.737 1333.77,949.737 1334,948.5C 1334.73,930.485 1334.57,912.485 1333.5,894.5 Z"/></g>
<g><path style="opacity:1" fill="#c97d0c" d="M 474.5,916.5 C 471.598,917.606 468.598,918.772 465.5,920C 428.331,920.831 391.331,920.664 354.5,919.5C 391.168,919.667 427.835,919.5 464.5,919C 467.557,917.236 470.89,916.402 474.5,916.5 Z"/></g>
<g><path style="opacity:1" fill="#c0862e" d="M 1429.5,920.5 C 1481.5,920.333 1533.5,920.5 1585.5,921C 1586.06,921.383 1586.39,921.883 1586.5,922.5C 1534.04,921.842 1481.71,921.175 1429.5,920.5 Z"/></g>
<g><path style="opacity:1" fill="#ba822d" d="M 1999.5,920.5 C 2039.83,920.333 2080.17,920.5 2120.5,921C 2121.74,921.232 2122.74,921.732 2123.5,922.5C 2082.02,921.855 2040.69,921.189 1999.5,920.5 Z"/></g>
<g><path style="opacity:1" fill="#322716" d="M 1999.5,918.5 C 1999.5,919.167 1999.5,919.833 1999.5,920.5C 2040.69,921.189 2082.02,921.855 2123.5,922.5C 2123.5,922.833 2123.5,923.167 2123.5,923.5C 2081.85,922.534 2040.18,922.2 1998.5,922.5C 1998.23,920.901 1998.57,919.568 1999.5,918.5 Z"/></g>
<g><path style="opacity:1" fill="#b97a1d" d="M 1602.5,939.5 C 1603.65,943.646 1603.81,947.98 1603,952.5C 1602.29,953.381 1601.46,954.047 1600.5,954.5C 1602.32,949.759 1602.98,944.759 1602.5,939.5 Z"/></g>
</svg>
